<svg width="168" height="49" viewBox="0 0 168 49" fill="none" xmlns="http://www.w3.org/2000/svg">
<path fill-rule="evenodd" clip-rule="evenodd" d="M48.3679 34.0223C48.3691 34.6257 48.3691 35.3618 48.3691 35.9639C48.3691 36.566 47.8975 37.1121 47.2771 37.1779C46.1119 37.2961 45.004 37.6045 43.9826 38.0701C41.573 39.167 39.6484 41.1415 38.6246 43.5816C38.237 44.5055 37.9786 45.4951 37.8702 46.5299C37.8043 47.1503 37.2827 47.6196 36.6599 47.6196C36.087 47.622 35.3972 47.622 34.8243 47.622C34.2003 47.622 33.6762 47.1515 33.6104 46.5311C33.6079 46.5092 33.6055 46.486 33.6031 46.4641C33.4531 45.0954 33.0387 43.8059 32.4098 42.648C31.9771 41.8509 31.4409 41.1305 30.8229 40.5016C29.0495 38.6941 26.5985 37.6349 23.9926 37.6349H8.92912C5.56151 37.6349 2.55588 35.5215 1.41628 32.3513C1.1591 31.6346 0.93484 30.9034 0.744703 30.1574C0.258391 28.2475 0 26.2462 0 24.1852C0 10.8366 10.8366 0 24.1852 0C37.5338 0 48.3691 10.8366 48.3691 24.1852C48.3691 26.4168 48.0657 28.5778 47.4989 30.6291C45.0442 30.3756 42.9015 29.0666 41.5449 27.1652C41.7107 26.1962 41.7972 25.2005 41.7972 24.1852C41.7972 14.4638 33.9053 6.57191 24.1852 6.57191C14.465 6.57191 6.57191 14.4638 6.57191 24.1852C6.57191 26.2816 6.93878 28.2926 7.61279 30.1574C8.08813 31.4738 9.33743 32.3513 10.7366 32.3513H23.995C27.5065 32.3513 30.7376 30.428 32.411 27.3395C33.0497 26.1621 33.4678 24.8507 33.6128 23.4575C33.6786 22.8384 34.2015 22.3679 34.8243 22.3679C35.3972 22.3679 36.087 22.3679 36.6599 22.3679C37.2839 22.3679 37.8068 22.8384 37.8726 23.4588C38.1261 25.9135 39.2328 28.1183 40.8904 29.7747C42.4542 31.3385 44.5091 32.4147 46.8042 32.7547C46.9602 32.7767 47.1174 32.7974 47.2759 32.8133C47.8962 32.8778 48.3679 33.4007 48.3679 34.0235V34.0223ZM31.514 47.2356C29.2019 47.9718 26.7398 48.3691 24.1852 48.3691C20.2118 48.3691 16.4603 47.4087 13.1511 45.7072C13.1426 45.7036 13.1329 45.6987 13.1243 45.6938C10.3064 44.241 7.81024 42.2506 5.77236 39.8581L5.76871 39.8544C5.76018 39.8459 5.75286 39.8374 5.74677 39.8288C5.5091 39.5485 5.2763 39.2633 5.05204 38.972C5.70167 39.2974 6.41712 39.4961 7.18133 39.4961H15.4803C15.6814 39.6119 15.8862 39.7228 16.0922 39.8288C16.7101 40.1506 17.3488 40.4358 18.0082 40.6832H18.0106C19.9327 41.4035 22.012 41.7972 24.1852 41.7972C25.6368 41.7972 27.047 41.6217 28.3974 41.289C29.2445 41.9179 29.9612 42.7321 30.4816 43.6925C30.985 44.6225 31.3153 45.6572 31.4287 46.7566V46.7591C31.4457 46.9224 31.475 47.0808 31.514 47.2356Z" fill="#003933"/>
<path d="M147.688 36.5234V10.1367H153.262V24.7795L160.658 16.6033H167.347L159.617 24.8166L167.57 36.5234H161.475L156.012 27.9756L153.262 30.9116V36.5234H147.688Z" fill="#003933"/>
<path d="M135.613 36.9693C129.48 36.9693 125.504 32.844 125.504 26.5633C125.504 20.2825 129.48 16.1572 135.613 16.1572C140.927 16.1572 144.755 19.056 145.35 23.9617L139.589 24.2219C139.255 21.769 137.731 20.4683 135.613 20.4683C132.825 20.4683 131.227 22.6982 131.227 26.5633C131.227 30.4283 132.825 32.6954 135.613 32.6954C137.768 32.6954 139.292 31.4318 139.589 28.7188L145.35 28.9418C144.792 33.8475 141.039 36.9693 135.613 36.9693Z" fill="#003933"/>
<path d="M117.125 14.1502V9.69043H122.885V14.1502H117.125ZM117.236 36.5231V16.603H122.811V36.5231H117.236Z" fill="#003933"/>
<path d="M91.038 36.5236L85.1289 16.6035H90.7407L94.1598 30.0942L97.8391 16.6035H102.373L106.052 30.0942L109.509 16.6035H115.121L109.211 36.5236H103.785L100.106 24.0736L96.4269 36.5236H91.038Z" fill="#003933"/>
<path d="M78.3277 38.8275L76.2837 36.2632C75.1316 36.8206 73.4963 37.1179 71.5638 37.1179C63.7593 37.1179 58.8164 31.3946 58.8164 23.3671C58.8164 15.5255 63.3133 9.54199 71.5638 9.54199C79.8143 9.54199 84.274 15.5255 84.274 23.3671C84.274 28.2728 82.5273 32.0264 79.4798 34.4793L82.9732 38.8275H78.3277ZM71.5638 32.3609C72.1956 32.3609 72.753 32.2866 73.2362 32.1008L69.5569 27.6039H74.2396L76.1722 30.1682C77.6216 28.756 78.4392 26.6376 78.4392 23.3671C78.4392 18.5358 76.358 14.299 71.5638 14.299C66.7324 14.299 64.6512 18.5358 64.6512 23.3671C64.6512 28.1613 66.7696 32.3609 71.5638 32.3609Z" fill="#003933"/>
</svg>
