<svg width="114" height="24" viewBox="0 0 114 24" fill="none" xmlns="http://www.w3.org/2000/svg">
<path fill-rule="evenodd" clip-rule="evenodd" d="M23.9994 16.8813C24 17.1807 24 17.546 24 17.8447C24 18.1435 23.766 18.4144 23.4581 18.4471C22.88 18.5057 22.3302 18.6587 21.8235 18.8898C20.6278 19.434 19.6729 20.4138 19.1649 21.6245C18.9726 22.0829 18.8444 22.574 18.7906 23.0874C18.7579 23.3952 18.4991 23.6281 18.19 23.6281C17.9058 23.6293 17.5635 23.6293 17.2793 23.6293C16.9696 23.6293 16.7096 23.3958 16.6769 23.088C16.6757 23.0771 16.6745 23.0656 16.6733 23.0548C16.5989 22.3756 16.3933 21.7358 16.0812 21.1612C15.8665 20.7657 15.6005 20.4083 15.2938 20.0963C14.4139 19.1994 13.1977 18.6739 11.9047 18.6739H4.43049C2.75953 18.6739 1.26819 17.6252 0.702734 16.0522C0.575129 15.6966 0.463853 15.3338 0.36951 14.9636C0.12821 14.016 0 13.023 0 12.0003C0 5.37694 5.37694 0 12.0003 0C18.6237 0 24 5.37694 24 12.0003C24 13.1076 23.8494 14.1799 23.5682 15.1977C22.3502 15.0719 21.287 14.4224 20.6139 13.4789C20.6962 12.9982 20.7391 12.5041 20.7391 12.0003C20.7391 7.17672 16.8233 3.26088 12.0003 3.26088C7.17732 3.26088 3.26088 7.17672 3.26088 12.0003C3.26088 13.0405 3.44291 14.0384 3.77735 14.9636C4.0132 15.6168 4.63309 16.0522 5.32735 16.0522H11.906C13.6483 16.0522 15.2515 15.0979 16.0818 13.5654C16.3987 12.9812 16.6062 12.3305 16.6781 11.6393C16.7108 11.332 16.9702 11.0986 17.2793 11.0986C17.5635 11.0986 17.9058 11.0986 18.19 11.0986C18.4997 11.0986 18.7591 11.332 18.7918 11.6399C18.9176 12.8579 19.4667 13.9519 20.2892 14.7737C21.0651 15.5497 22.0847 16.0837 23.2235 16.2524C23.3009 16.2633 23.3789 16.2736 23.4575 16.2814C23.7654 16.3135 23.9994 16.5729 23.9994 16.8819V16.8813ZM15.6367 23.4376C14.4895 23.8028 13.2679 24 12.0003 24C10.0288 24 8.16732 23.5234 6.52539 22.6792C6.52115 22.6774 6.51632 22.675 6.51208 22.6725C5.11387 21.9517 3.87532 20.9641 2.86416 19.7769L2.86234 19.7751C2.85811 19.7709 2.85448 19.7667 2.85146 19.7624C2.73353 19.6233 2.61802 19.4818 2.50674 19.3373C2.82908 19.4988 3.18407 19.5973 3.56326 19.5973H7.68109C7.78087 19.6548 7.88247 19.7098 7.98468 19.7624C8.29129 19.9221 8.60819 20.0636 8.93537 20.1864H8.93657C9.89029 20.5438 10.922 20.7391 12.0003 20.7391C12.7206 20.7391 13.4203 20.652 14.0904 20.4869C14.5107 20.799 14.8663 21.203 15.1245 21.6795C15.3743 22.141 15.5382 22.6544 15.5944 23.1999V23.2011C15.6029 23.2821 15.6174 23.3608 15.6367 23.4376Z" fill="#003933"/>
<path d="M99.3594 20.934V1.82617H103.396V12.4297L108.752 6.50894H113.596L107.998 12.4566L113.758 20.934H109.344L105.388 14.7441L103.396 16.8702V20.934H99.3594Z" fill="#003933"/>
<path d="M90.6092 21.2575C86.1687 21.2575 83.2891 18.2702 83.2891 13.722C83.2891 9.17381 86.1687 6.18652 90.6092 6.18652C94.4577 6.18652 97.2297 8.2857 97.6603 11.8381L93.4889 12.0265C93.2467 10.2503 92.1433 9.30837 90.6092 9.30837C88.5908 9.30837 87.4336 10.9231 87.4336 13.722C87.4336 16.5209 88.5908 18.1626 90.6092 18.1626C92.1702 18.1626 93.2736 17.2475 93.4889 15.2829L97.6603 15.4444C97.2566 18.9968 94.5385 21.2575 90.6092 21.2575Z" fill="#003933"/>
<path d="M77.2188 4.73242V1.50293H81.3902V4.73242H77.2188ZM77.2995 20.9337V6.50865H81.3364V20.9337H77.2995Z" fill="#003933"/>
<path d="M58.3338 20.9348L54.0547 6.50977H58.1185L60.5944 16.279L63.2587 6.50977H66.5421L69.2064 16.279L71.7093 6.50977H75.773L71.494 20.9348H67.5647L64.9004 11.9192L62.2361 20.9348H58.3338Z" fill="#003933"/>
<path d="M49.129 22.6035L47.6489 20.7465C46.8146 21.1502 45.6304 21.3655 44.231 21.3655C38.5794 21.3655 35 17.221 35 11.4079C35 5.72939 38.2564 1.39648 44.231 1.39648C50.2055 1.39648 53.435 5.72939 53.435 11.4079C53.435 14.9604 52.1701 17.6785 49.9633 19.4547L52.4931 22.6035H49.129ZM44.231 17.9207C44.6885 17.9207 45.0922 17.8669 45.442 17.7323L42.7777 14.4759H46.1687L47.5681 16.3329C48.6177 15.3102 49.2098 13.7762 49.2098 11.4079C49.2098 7.9093 47.7027 4.84128 44.231 4.84128C40.7324 4.84128 39.2253 7.9093 39.2253 11.4079C39.2253 14.8796 40.7593 17.9207 44.231 17.9207Z" fill="#003933"/>
</svg>
