<svg width="770" height="250" viewBox="0 0 770 250" fill="none" xmlns="http://www.w3.org/2000/svg">
<path fill-rule="evenodd" clip-rule="evenodd" d="M15.9034 62.4547C12.0779 61.4951 8.03494 62.3523 4.92593 64.7832C1.81691 67.2141 0.00012207 70.9245 0.00012207 74.8651V202.322C0.00012207 206.263 1.81691 209.986 4.92593 212.404C8.03494 214.835 12.0779 215.692 15.9034 214.732C48.8616 206.493 123.811 187.749 150.538 181.071C156.231 179.65 160.223 174.533 160.223 168.66V108.527C160.223 102.654 156.231 97.5366 150.538 96.1165C123.811 89.4378 48.8616 70.6942 15.9034 62.4547Z" fill="#EF0C18"/>
<path d="M94.3964 63.2605C95.8677 64.348 96.3539 66.3312 95.5734 67.9816C94.793 69.6321 92.9506 70.5021 91.1722 70.0671C67.6179 64.1817 27.93 54.2533 9.69808 49.6986C4.00462 48.2656 0 43.1479 0 37.2625C0 28.7671 0.0127943 16.4973 0.0255886 7.02955C0.0255886 4.36834 1.53532 1.93742 3.90226 0.74755C6.282 -0.44232 9.12234 -0.199228 11.259 1.38727C31.0134 16.0879 72.0063 46.5895 94.3836 63.2477L94.3964 63.2605Z" fill="#EF0C18"/>
<path d="M90.6749 248.496C88.7685 250.095 86.1073 250.454 83.8555 249.405C81.6037 248.355 80.1579 246.091 80.1579 243.609C80.1579 236.022 80.1451 226.771 80.1451 219.875C80.1451 214.003 84.137 208.872 89.8304 207.452C103.316 204.074 127.919 197.933 144.168 193.864C145.895 193.429 147.699 194.248 148.518 195.835C149.337 197.421 148.94 199.366 147.571 200.517C131.847 213.772 105.324 236.137 90.6749 248.483V248.496Z" fill="#EF0C18"/>
<path d="M734.845 192L699.38 144.03V192H674.78V46.45H699.38V134.19L735.255 89.5H765.185L723.16 138.495L766.21 192H734.845Z" fill="white"/>
<path d="M611.183 194.05C582.073 194.05 561.573 175.19 561.573 140.75C561.573 106.31 582.073 87.45 611.183 87.45C640.498 87.45 654.848 106.72 656.693 125.375H631.683C630.658 114.51 623.688 106.515 610.773 106.515C595.398 106.515 586.993 117.585 586.993 137.88V143.62C586.993 163.915 595.398 174.985 610.773 174.985C623.688 174.985 630.658 166.99 631.683 156.125H656.693C654.848 174.78 640.498 194.05 611.183 194.05Z" fill="white"/>
<path d="M518.027 192V89.5H542.627V192H518.027ZM517.617 73.51H543.242V48.5H517.617V73.51Z" fill="white"/>
<path d="M438.652 89.5L452.797 152.025L457.717 176.83H458.537L463.867 152.025L478.627 89.5H503.022L475.962 192H438.652L426.352 134.395L421.637 109.59H420.817L416.102 134.395L403.597 192H367.722L340.867 89.5H366.082L380.842 152.025L385.967 176.83H386.787L391.707 152.025L405.852 89.5H438.652Z" fill="white"/>
<path d="M264.533 213.73V194.05C228.453 193.025 202.623 165.76 202.623 122.3C202.623 78.02 229.478 50.55 266.788 50.55C304.098 50.55 330.953 78.02 330.953 122.3C330.953 163.095 307.993 189.745 275.193 193.64L323.368 199.79V221.725L264.533 213.73ZM228.043 125.99C228.043 154.895 243.008 172.115 266.788 172.115C290.568 172.115 305.533 154.895 305.533 125.99V118.61C305.533 89.705 290.568 72.28 266.788 72.28C243.008 72.28 228.043 89.705 228.043 118.61V125.99Z" fill="white"/>
</svg>
